<svg width="93" height="93" viewBox="0 0 93 93" fill="none" xmlns="http://www.w3.org/2000/svg">
<path d="M46.5 91C71.0767 91 91 71.0767 91 46.5C91 21.9233 71.0767 2 46.5 2C21.9233 2 2 21.9233 2 46.5C2 71.0767 21.9233 91 46.5 91Z" stroke="#FCC344" stroke-width="4" stroke-miterlimit="10"/>
<path d="M46.5007 76.1668C62.8851 76.1668 76.1673 62.8846 76.1673 46.5002C76.1673 30.1157 62.8851 16.8335 46.5007 16.8335C30.1162 16.8335 16.834 30.1157 16.834 46.5002C16.834 62.8846 30.1162 76.1668 46.5007 76.1668Z" stroke="#FCC344" stroke-width="4" stroke-miterlimit="10"/>
<path d="M46.4993 61.3332C54.6916 61.3332 61.3327 54.6921 61.3327 46.4998C61.3327 38.3076 54.6916 31.6665 46.4993 31.6665C38.3071 31.6665 31.666 38.3076 31.666 46.4998C31.666 54.6921 38.3071 61.3332 46.4993 61.3332Z" stroke="#FCC344" stroke-width="4" stroke-miterlimit="10"/>
</svg>
