<svg width="121" height="93" viewBox="0 0 121 93" fill="none" xmlns="http://www.w3.org/2000/svg">
<path d="M46.5 91C71.0767 91 91 71.0767 91 46.5C91 21.9233 71.0767 2 46.5 2C21.9233 2 2 21.9233 2 46.5C2 71.0767 21.9233 91 46.5 91Z" stroke="#FCC344" stroke-width="4" stroke-miterlimit="10"/>
<path d="M46.5 91C64.9325 91 79.875 71.0767 79.875 46.5C79.875 21.9233 64.9325 2 46.5 2C28.0675 2 13.125 21.9233 13.125 46.5C13.125 71.0767 28.0675 91 46.5 91Z" stroke="#FCC344" stroke-width="4" stroke-miterlimit="10"/>
<path d="M71.5 91C97.7335 91 119 71.0767 119 46.5C119 21.9233 97.7335 2 71.5 2C45.2665 2 24 21.9233 24 46.5C24 71.0767 45.2665 91 71.5 91Z" stroke="#FCC344" stroke-width="4" stroke-miterlimit="10"/>
<path d="M46.5 91C52.6442 91 57.625 71.0767 57.625 46.5C57.625 21.9233 52.6442 2 46.5 2C40.3558 2 35.375 21.9233 35.375 46.5C35.375 71.0767 40.3558 91 46.5 91Z" stroke="#FCC344" stroke-width="4" stroke-miterlimit="10"/>
<path d="M46.5 91V2" stroke="#FCC344" stroke-width="4" stroke-miterlimit="10"/>
</svg>
