<svg width="93" height="93" viewBox="0 0 93 93" fill="none" xmlns="http://www.w3.org/2000/svg">
<path d="M82.9874 58.8294H18.6592C22.2687 52.7971 27.0648 46.6165 32.8499 40.8809C52.6774 21.0534 76.8561 12.9939 86.7451 22.9324C93.7664 29.9536 91.7886 44.0947 82.9874 58.8294Z" stroke="#FCC344" stroke-width="4" stroke-miterlimit="10"/>
<path d="M10.0056 34.1558H74.3338C70.7243 40.1881 65.9282 46.3691 60.1431 52.1047C40.3156 71.9323 16.1369 79.9917 6.24786 70.0532C-0.773351 63.0815 1.20438 48.8904 10.0056 34.1558Z" stroke="#FCC344" stroke-width="4" stroke-miterlimit="10"/>
<path d="M58.8579 10.0267V74.3552C52.8256 70.7457 46.6449 65.9494 40.9093 60.1643C21.0818 40.3368 13.0222 16.1581 22.9607 6.26907C29.9324 -0.801587 44.1232 1.22547 58.8579 10.0267Z" stroke="#FCC344" stroke-width="4" stroke-miterlimit="10"/>
<path d="M34.1348 82.9583V18.6304C40.1671 22.2399 46.3477 27.0361 52.0834 32.8212C71.9109 52.6487 79.9705 76.8274 70.032 86.7165C63.0602 93.7871 48.8694 91.809 34.1348 82.9583Z" stroke="#FCC344" stroke-width="4" stroke-miterlimit="10"/>
</svg>
