<svg width="93" height="93" viewBox="0 0 93 93" fill="none" xmlns="http://www.w3.org/2000/svg">
<path d="M13.125 2H2V13.125H13.125V2Z" stroke="#FCC344" stroke-width="4" stroke-miterlimit="10"/>
<path d="M13.125 13.125H2V24.25H13.125V13.125Z" stroke="#FCC344" stroke-width="4" stroke-miterlimit="10"/>
<path d="M35.375 2H24.25V13.125H35.375V2Z" stroke="#FCC344" stroke-width="4" stroke-miterlimit="10"/>
<path d="M46.5 2H35.375V13.125H46.5V2Z" stroke="#FCC344" stroke-width="4" stroke-miterlimit="10"/>
<path d="M35.375 13.125H24.25V24.25H35.375V13.125Z" stroke="#FCC344" stroke-width="4" stroke-miterlimit="10"/>
<path d="M13.125 24.25H2V35.375H13.125V24.25Z" stroke="#FCC344" stroke-width="4" stroke-miterlimit="10"/>
<path d="M13.125 35.375H2V46.5H13.125V35.375Z" stroke="#FCC344" stroke-width="4" stroke-miterlimit="10"/>
<path d="M35.375 24.25H24.25V35.375H35.375V24.25Z" stroke="#FCC344" stroke-width="4" stroke-miterlimit="10"/>
<path d="M35.375 35.375H24.25V46.5H35.375V35.375Z" stroke="#FCC344" stroke-width="4" stroke-miterlimit="10"/>
<path d="M57.625 2H46.5V13.125H57.625V2Z" stroke="#FCC344" stroke-width="4" stroke-miterlimit="10"/>
<path d="M68.75 2H57.625V13.125H68.75V2Z" stroke="#FCC344" stroke-width="4" stroke-miterlimit="10"/>
<path d="M79.875 2H68.75V13.125H79.875V2Z" stroke="#FCC344" stroke-width="4" stroke-miterlimit="10"/>
<path d="M91 2H79.875V13.125H91V2Z" stroke="#FCC344" stroke-width="4" stroke-miterlimit="10"/>
<path d="M91 13.125H79.875V24.25H91V13.125Z" stroke="#FCC344" stroke-width="4" stroke-miterlimit="10"/>
<path d="M57.625 24.25H46.5V35.375H57.625V24.25Z" stroke="#FCC344" stroke-width="4" stroke-miterlimit="10"/>
<path d="M68.75 24.25H57.625V35.375H68.75V24.25Z" stroke="#FCC344" stroke-width="4" stroke-miterlimit="10"/>
<path d="M68.75 35.375H57.625V46.5H68.75V35.375Z" stroke="#FCC344" stroke-width="4" stroke-miterlimit="10"/>
<path d="M91 24.25H79.875V35.375H91V24.25Z" stroke="#FCC344" stroke-width="4" stroke-miterlimit="10"/>
<path d="M91 35.375H79.875V46.5H91V35.375Z" stroke="#FCC344" stroke-width="4" stroke-miterlimit="10"/>
<path d="M13.125 46.5H2V57.625H13.125V46.5Z" stroke="#FCC344" stroke-width="4" stroke-miterlimit="10"/>
<path d="M13.125 57.625H2V68.75H13.125V57.625Z" stroke="#FCC344" stroke-width="4" stroke-miterlimit="10"/>
<path d="M35.375 46.5H24.25V57.625H35.375V46.5Z" stroke="#FCC344" stroke-width="4" stroke-miterlimit="10"/>
<path d="M35.375 57.625H24.25V68.75H35.375V57.625Z" stroke="#FCC344" stroke-width="4" stroke-miterlimit="10"/>
<path d="M46.5 57.625H35.375V68.75H46.5V57.625Z" stroke="#FCC344" stroke-width="4" stroke-miterlimit="10"/>
<path d="M13.125 68.75H2V79.875H13.125V68.75Z" stroke="#FCC344" stroke-width="4" stroke-miterlimit="10"/>
<path d="M13.125 79.875H2V91H13.125V79.875Z" stroke="#FCC344" stroke-width="4" stroke-miterlimit="10"/>
<path d="M24.25 79.875H13.125V91H24.25V79.875Z" stroke="#FCC344" stroke-width="4" stroke-miterlimit="10"/>
<path d="M35.375 79.875H24.25V91H35.375V79.875Z" stroke="#FCC344" stroke-width="4" stroke-miterlimit="10"/>
<path d="M46.5 79.875H35.375V91H46.5V79.875Z" stroke="#FCC344" stroke-width="4" stroke-miterlimit="10"/>
<path d="M68.75 46.5H57.625V57.625H68.75V46.5Z" stroke="#FCC344" stroke-width="4" stroke-miterlimit="10"/>
<path d="M57.625 57.625H46.5V68.75H57.625V57.625Z" stroke="#FCC344" stroke-width="4" stroke-miterlimit="10"/>
<path d="M68.75 57.625H57.625V68.75H68.75V57.625Z" stroke="#FCC344" stroke-width="4" stroke-miterlimit="10"/>
<path d="M91 46.5H79.875V57.625H91V46.5Z" stroke="#FCC344" stroke-width="4" stroke-miterlimit="10"/>
<path d="M91 57.625H79.875V68.75H91V57.625Z" stroke="#FCC344" stroke-width="4" stroke-miterlimit="10"/>
<path d="M57.625 79.875H46.5V91H57.625V79.875Z" stroke="#FCC344" stroke-width="4" stroke-miterlimit="10"/>
<path d="M68.75 79.875H57.625V91H68.75V79.875Z" stroke="#FCC344" stroke-width="4" stroke-miterlimit="10"/>
<path d="M91 68.75H79.875V79.875H91V68.75Z" stroke="#FCC344" stroke-width="4" stroke-miterlimit="10"/>
<path d="M79.875 79.875H68.75V91H79.875V79.875Z" stroke="#FCC344" stroke-width="4" stroke-miterlimit="10"/>
<path d="M91 79.875H79.875V91H91V79.875Z" stroke="#FCC344" stroke-width="4" stroke-miterlimit="10"/>
</svg>
