<svg viewBox="0 0 141 37" fill="none" xmlns="http://www.w3.org/2000/svg">
<path fill-rule="evenodd" clip-rule="evenodd" d="M0 17.1271H5.07069V5.47529L11.7033 17.1271H14.5329L21.1655 5.47523V17.1271H26.372V0.294151H19.1508L13.3108 10.7695L7.49281 0.294151H0V17.1271ZM40.1336 0C29.4718 0 28.2721 5.31685 28.2721 8.32601V9.00487C28.2721 11.9688 29.4718 17.4214 40.1336 17.4214H41.1069C51.7239 17.4214 52.9465 11.9688 52.9465 9.00487V8.32619C52.9465 5.31703 51.7015 0.000181275 41.1069 0.000181275H40.1336V0ZM47.423 8.80091C47.423 10.7466 46.2684 13.3259 40.6091 13.3259C34.9047 13.3259 33.7955 10.6787 33.7955 8.75569V8.48421C33.7955 6.56104 34.8143 4.0723 40.6091 4.0723C46.3138 4.0723 47.423 6.56104 47.423 8.48421V8.80097V8.80091ZM54.8465 0.293848V17.1271H60.0534V5.97304L71.4848 17.1271H76.691V0.294151H71.4848V10.8827L60.732 0.294151H54.8465V0.293848ZM106.66 17.1271H111.935V10.6113L120.695 0.294273H114.742L109.422 6.49346L104.193 0.294151H97.6508L106.66 10.6113V17.1271Z" fill="white"/>
<path fill-rule="evenodd" clip-rule="evenodd" d="M54.8367 19.508V36.341H60.0884V29.6666H71.9504V25.8204H60.0884V23.3316H72.2445V19.508H54.8367ZM110.152 36.6351C118.618 36.6351 120.022 33.7843 120.022 31.0015V30.6847C120.022 27.3362 117.464 25.7977 111.125 25.6846L108.296 25.6393C104.855 25.5715 104.402 24.9154 104.402 24.1913C104.402 23.4673 104.696 22.7433 108.771 22.7433H109.133C113.547 22.7433 113.887 24.1235 114 24.757H119.478V24.5307C119.478 21.9967 117.667 19.2139 109.699 19.2139H108.137C100.463 19.2139 98.9691 21.8384 98.9691 24.3497V24.5533C98.9691 27.1778 100.893 29.3046 107.186 29.4856L110.084 29.5535C113.977 29.6666 114.498 30.2775 114.498 31.2506C114.498 32.1556 114 33.038 109.564 33.038H109.246C104.9 33.038 104.312 31.3864 104.244 30.3683H98.7429V30.6172C98.7429 32.8344 99.7618 36.6354 108.59 36.6354H110.152V36.6351ZM127.898 36.341H133.218V23.4899H140.484V19.5077H120.655V23.4899H127.898V36.341Z" fill="white"/>
<path d="M76.7468 19.5093H71.7134V23.3279H76.7468V19.5093Z" fill="white"/>
<path d="M76.7468 25.813H71.4102V29.6922H76.7468V25.813Z" fill="white"/>
<path d="M97.0021 0.294922H79.2334V4.1135H97.0021V0.294922Z" fill="#FCC344"/>
<path d="M97.0021 6.71973H79.2334V10.5383H97.0021V6.71973Z" fill="#FCC344"/>
<path d="M97.0021 13.1445H79.2334V16.9631H97.0021V13.1445Z" fill="#FCC344"/>
<path d="M97.0021 19.6304H79.2334V23.4489H97.0021V19.6304Z" fill="#FCC344"/>
<path d="M97.0021 26.0552H79.2334V29.8738H97.0021V26.0552Z" fill="#FCC344"/>
<path d="M97.0021 32.48H79.2334V36.2986H97.0021V32.48Z" fill="#FCC344"/>
</svg>
